<svg width="120" height="119" viewBox="0 0 120 119" fill="none" xmlns="http://www.w3.org/2000/svg">
<path d="M0 0H120V83.171H0V0Z" fill="#1E1E1E"/>
<path d="M21.896 43.384H18.728V40.552H21.896V43.384ZM29.24 40.96H11.432V38.68H29.24V40.96ZM21.872 32.632H18.68V30.208H21.872V32.632ZM21.296 33.184C21.296 34.64 20.6 35.816 19.208 36.712C17.816 37.608 15.704 38.12 12.872 38.248L12.032 35.896C14.352 35.8 16.016 35.496 17.024 34.984C18.032 34.456 18.536 33.856 18.536 33.184V32.752H21.296V33.184ZM22.088 33.184C22.088 33.872 22.584 34.472 23.576 34.984C24.584 35.496 26.264 35.8 28.616 35.896L27.728 38.248C24.912 38.12 22.8 37.608 21.392 36.712C20 35.816 19.304 34.64 19.304 33.184V32.752H22.088V33.184ZM27.632 34.072H13.04V31.72H27.632V34.072ZM27.176 47.152H16.52V48.88H13.376V45.016H24.032V44.32H13.376V42.016H27.176V47.152ZM27.632 50.272H13.376V47.944H27.632V50.272ZM33.6877 33.304H36.9997V31.12H40.1917V39.928H30.5197V31.12H33.6877V33.304ZM36.9997 37.408V35.728H33.6877V37.408H36.9997ZM45.7117 40.408H42.5677V30.208H45.7117V40.408ZM48.2797 36.544H44.4397V33.928H48.2797V36.544ZM45.7117 46.792H35.6317V48.976H32.4877V44.488H42.5917V43.576H32.4877V41.08H45.7117V46.792ZM46.2397 50.272H32.4877V47.752H46.2397V50.272ZM55.8714 35.416C55.8714 37.976 55.4074 40.272 54.4794 42.304C53.5514 44.336 52.1594 45.776 50.3034 46.624L48.5514 44.08C50.1514 43.344 51.3434 42.184 52.1274 40.6C52.9114 39 53.3034 37.272 53.3034 35.416V33.496H55.8714V35.416ZM56.5674 35.416C56.5674 37.176 56.9514 38.808 57.7194 40.312C58.5034 41.8 59.7034 42.888 61.3194 43.576L59.6394 46.144C57.7514 45.328 56.3514 43.96 55.4394 42.04C54.5274 40.104 54.0714 37.896 54.0714 35.416V33.496H56.5674V35.416ZM60.4794 34.72H49.3434V32.128H60.4794V34.72ZM65.2554 50.392H62.0634V30.208H65.2554V50.392ZM87.0151 35.464H82.1431V32.92H87.0151V35.464ZM88.7431 40.408H85.5511V30.208H88.7431V40.408ZM88.7431 46.792H78.7111V49.144H75.5671V44.44H85.5751V43.648H75.5431V41.152H88.7431V46.792ZM89.2231 50.176H75.5671V47.656H89.2231V50.176ZM79.0231 32.152C79.0231 34.184 78.5671 35.952 77.6551 37.456C76.7591 38.96 75.3751 40 73.5031 40.576L71.8231 38.056C73.4391 37.592 74.6151 36.832 75.3511 35.776C76.1031 34.72 76.4791 33.512 76.4791 32.152V30.88H79.0231V32.152ZM79.6951 32.152C79.6951 33.416 80.0391 34.552 80.7271 35.56C81.4311 36.552 82.5351 37.272 84.0391 37.72L82.3831 40.216C80.5751 39.64 79.2391 38.64 78.3751 37.216C77.5111 35.792 77.0791 34.104 77.0791 32.152V30.88H79.6951V32.152ZM105.047 37.6H101.567V34.984H105.047V37.6ZM107.423 42.16H104.255V30.208H107.423V42.16ZM100.631 42.568C102.759 42.568 104.423 42.912 105.623 43.6C106.839 44.288 107.447 45.256 107.447 46.504C107.447 47.72 106.839 48.672 105.623 49.36C104.423 50.064 102.759 50.416 100.631 50.416C98.5028 50.416 96.8308 50.072 95.6148 49.384C94.4148 48.696 93.8148 47.736 93.8148 46.504C93.8148 45.256 94.4148 44.288 95.6148 43.6C96.8148 42.912 98.4868 42.568 100.631 42.568ZM100.631 45.016C99.3988 45.016 98.4708 45.136 97.8468 45.376C97.2388 45.616 96.9348 45.992 96.9348 46.504C96.9348 47 97.2388 47.368 97.8468 47.608C98.4708 47.848 99.3988 47.968 100.631 47.968C101.863 47.968 102.783 47.848 103.391 47.608C103.999 47.368 104.303 47 104.303 46.504C104.303 45.992 103.999 45.616 103.391 45.376C102.783 45.136 101.863 45.016 100.631 45.016ZM97.7268 33.376C97.7268 35.472 97.2708 37.312 96.3588 38.896C95.4628 40.48 94.0628 41.592 92.1588 42.232L90.5508 39.712C92.1508 39.168 93.3108 38.32 94.0308 37.168C94.7668 36.016 95.1348 34.752 95.1348 33.376V32.224H97.7268V33.376ZM98.3988 33.352C98.3988 34.632 98.7508 35.8 99.4548 36.856C100.159 37.912 101.271 38.696 102.791 39.208L101.231 41.776C99.3908 41.168 98.0308 40.104 97.1508 38.584C96.2708 37.064 95.8308 35.32 95.8308 33.352V32.224H98.3988V33.352ZM102.095 33.904H91.4148V31.336H102.095V33.904Z" fill="white"/>
<rect x="59" y="83" width="5" height="36" fill="#7C7C7C"/>
</svg>
